<?xml version="1.0" encoding="utf-8"?>
<!-- Generator: Adobe Illustrator 21.1.0, SVG Export Plug-In . SVG Version: 6.00 Build 0)  -->
<svg version="1.1" id="Layer_1" xmlns="http://www.w3.org/2000/svg" xmlns:xlink="http://www.w3.org/1999/xlink" x="0px" y="0px"
	 viewBox="0 0 393.6 452.2" style="enable-background:new 0 0 393.6 452.2;" xml:space="preserve">
<style type="text/css">
	.st0{fill:#FFFFFF;}
</style>
<g>
	<path class="st0" d="M88.6,381.4l-12.8-14.3c-0.3-0.4-0.6-0.5-0.8-0.4c-0.2,0.1-0.3,0.4-0.3,0.8V381c0,0.4-0.2,0.8-0.5,1.1
		c-0.3,0.3-0.7,0.5-1.1,0.5h-9.9c-0.5,0-0.9-0.2-1.2-0.5c-0.3-0.3-0.4-0.7-0.4-1.1v-45.1c0-0.4,0.1-0.8,0.4-1.1
		c0.3-0.3,0.7-0.5,1.2-0.5h9.9c0.4,0,0.8,0.2,1.1,0.5c0.3,0.3,0.5,0.7,0.5,1.1V351c0,0.4,0.1,0.7,0.3,0.8c0.2,0.1,0.4-0.1,0.7-0.4
		l11.9-15.8c0.3-0.4,0.6-0.6,1.1-0.9c0.5-0.2,1-0.4,1.5-0.4h12.6c0.5,0,0.8,0.2,0.9,0.6c0.1,0.4,0.1,0.8-0.2,1.2l-17.4,21.7
		c-0.3,0.4-0.4,0.8-0.4,1.2c0,0.5,0.2,0.8,0.5,1.2c1.5,1.6,3.1,3.3,4.8,5.1c1.7,1.8,3.3,3.5,5,5.3c1.7,1.8,3.3,3.5,4.9,5.3
		c1.6,1.7,3.1,3.4,4.6,4.9c0.3,0.4,0.4,0.7,0.3,1.2c-0.1,0.4-0.4,0.7-0.9,0.7H91.2c-0.5,0-1-0.1-1.5-0.3
		C89.2,382,88.8,381.7,88.6,381.4z"/>
	<path class="st0" d="M124.3,348v2.8c0,0.4,0.2,0.8,0.5,1.1c0.3,0.3,0.7,0.5,1.1,0.5h17.9c0.4,0,0.8,0.2,1.1,0.5
		c0.3,0.3,0.5,0.7,0.5,1.1v9.1c0,0.4-0.2,0.8-0.5,1.1c-0.3,0.3-0.7,0.5-1.1,0.5h-17.9c-0.4,0-0.8,0.2-1.1,0.5
		c-0.3,0.3-0.5,0.7-0.5,1.1v2.5c0,0.4,0.2,0.8,0.5,1.1c0.3,0.3,0.7,0.5,1.1,0.5h20.5c0.4,0,0.8,0.2,1.1,0.5c0.3,0.3,0.5,0.7,0.5,1.1
		v9.1c0,0.4-0.2,0.8-0.5,1.1c-0.3,0.3-0.7,0.5-1.1,0.5h-33.6c-0.4,0-0.8-0.2-1.1-0.5c-0.3-0.3-0.5-0.7-0.5-1.1v-45.1
		c0-0.4,0.2-0.8,0.5-1.1c0.3-0.3,0.7-0.5,1.1-0.5h33.6c0.4,0,0.8,0.2,1.1,0.5c0.3,0.3,0.5,0.7,0.5,1.1v9c0,0.4-0.2,0.8-0.5,1.1
		c-0.3,0.3-0.7,0.5-1.1,0.5h-20.5c-0.4,0-0.8,0.2-1.1,0.5C124.4,347.2,124.3,347.5,124.3,348z"/>
	<path class="st0" d="M170.7,348v2.8c0,0.4,0.2,0.8,0.5,1.1c0.3,0.3,0.7,0.5,1.1,0.5h17.9c0.4,0,0.8,0.2,1.1,0.5
		c0.3,0.3,0.5,0.7,0.5,1.1v9.1c0,0.4-0.2,0.8-0.5,1.1c-0.3,0.3-0.7,0.5-1.1,0.5h-17.9c-0.4,0-0.8,0.2-1.1,0.5
		c-0.3,0.3-0.5,0.7-0.5,1.1v2.5c0,0.4,0.2,0.8,0.5,1.1c0.3,0.3,0.7,0.5,1.1,0.5h20.5c0.4,0,0.8,0.2,1.1,0.5c0.3,0.3,0.5,0.7,0.5,1.1
		v9.1c0,0.4-0.2,0.8-0.5,1.1c-0.3,0.3-0.7,0.5-1.1,0.5h-33.6c-0.4,0-0.8-0.2-1.1-0.5c-0.3-0.3-0.5-0.7-0.5-1.1v-45.1
		c0-0.4,0.2-0.8,0.5-1.1c0.3-0.3,0.7-0.5,1.1-0.5h33.6c0.4,0,0.8,0.2,1.1,0.5c0.3,0.3,0.5,0.7,0.5,1.1v9c0,0.4-0.2,0.8-0.5,1.1
		c-0.3,0.3-0.7,0.5-1.1,0.5h-20.5c-0.4,0-0.8,0.2-1.1,0.5C170.8,347.2,170.7,347.5,170.7,348z"/>
	<path class="st0" d="M224.4,369.6h-5.8c-0.4,0-0.8,0.2-1.1,0.5c-0.3,0.3-0.5,0.7-0.5,1.1v9.8c0,0.4-0.2,0.8-0.5,1.1
		c-0.3,0.3-0.7,0.5-1.1,0.5h-9.9c-0.4,0-0.8-0.2-1.1-0.5c-0.3-0.3-0.5-0.7-0.5-1.1v-45.1c0-0.4,0.2-0.8,0.5-1.1
		c0.3-0.3,0.7-0.5,1.1-0.5h20.2c2.5,0,4.8,0.5,7,1.4c2.2,0.9,4.1,2.2,5.7,3.8c1.6,1.6,2.9,3.5,3.8,5.7c0.9,2.2,1.4,4.5,1.4,6.9
		c0,2.5-0.4,4.8-1.2,6.9c-0.8,2.1-2,4-3.6,5.5c-1.6,1.6-3.6,2.8-6,3.7C230.4,369.1,227.6,369.6,224.4,369.6z M224.9,346.4h-6.2
		c-0.4,0-0.8,0.2-1.1,0.5c-0.3,0.3-0.5,0.7-0.5,1.1v7.7c0,0.4,0.2,0.8,0.5,1.1c0.3,0.3,0.7,0.5,1.1,0.5h7.1c1.7,0,2.9-0.5,3.7-1.6
		s1.2-2.3,1.2-3.6c0-0.7-0.1-1.4-0.4-2.1c-0.2-0.7-0.6-1.3-1.1-1.8c-0.5-0.5-1.1-1-1.8-1.3C226.6,346.6,225.8,346.4,224.9,346.4z"/>
	<path class="st0" d="M286.1,382.6h-9.9c-0.5,0-0.9-0.2-1.1-0.5c-0.3-0.3-0.4-0.7-0.4-1.1v-45.1c0-0.4,0.1-0.8,0.4-1.1
		c0.3-0.3,0.7-0.5,1.1-0.5h9.9c0.4,0,0.8,0.2,1.1,0.5c0.3,0.3,0.5,0.7,0.5,1.1V381c0,0.4-0.2,0.8-0.5,1.1
		C286.9,382.4,286.5,382.6,286.1,382.6z"/>
	<path class="st0" d="M330.1,346.4h-9.2c-0.4,0-0.8,0.2-1.1,0.5c-0.3,0.3-0.5,0.7-0.5,1.1v33c0,0.4-0.1,0.8-0.4,1.1
		c-0.3,0.3-0.7,0.5-1.2,0.5h-9.9c-0.4,0-0.8-0.2-1.1-0.5c-0.3-0.3-0.5-0.7-0.5-1.1v-33c0-0.4-0.1-0.8-0.4-1.1
		c-0.3-0.3-0.7-0.5-1.2-0.5h-9.4c-0.4,0-0.8-0.2-1.1-0.5c-0.3-0.3-0.5-0.7-0.5-1.1v-9c0-0.4,0.2-0.8,0.5-1.1
		c0.3-0.3,0.7-0.5,1.1-0.5h34.8c0.5,0,0.9,0.2,1.2,0.5c0.3,0.3,0.4,0.7,0.4,1.1v9c0,0.4-0.1,0.8-0.4,1.1
		C330.9,346.3,330.5,346.4,330.1,346.4z"/>
	<path class="st0" d="M13.1,416.8v2.8c0,0.4,0.2,0.8,0.5,1.1c0.3,0.3,0.7,0.5,1.1,0.5h17.9c0.4,0,0.8,0.2,1.1,0.5
		c0.3,0.3,0.5,0.7,0.5,1.1v9.1c0,0.4-0.2,0.8-0.5,1.1c-0.3,0.3-0.7,0.5-1.1,0.5H14.7c-0.4,0-0.8,0.2-1.1,0.5
		c-0.3,0.3-0.5,0.7-0.5,1.1v2.5c0,0.4,0.2,0.8,0.5,1.1c0.3,0.3,0.7,0.5,1.1,0.5h20.5c0.4,0,0.8,0.2,1.1,0.5c0.3,0.3,0.5,0.7,0.5,1.1
		v9.1c0,0.4-0.2,0.8-0.5,1.1c-0.3,0.3-0.7,0.5-1.1,0.5H1.6c-0.4,0-0.8-0.2-1.1-0.5c-0.3-0.3-0.5-0.7-0.5-1.1v-45.1
		c0-0.4,0.2-0.8,0.5-1.1c0.3-0.3,0.7-0.5,1.1-0.5h33.6c0.4,0,0.8,0.2,1.1,0.5c0.3,0.3,0.5,0.7,0.5,1.1v9c0,0.4-0.2,0.8-0.5,1.1
		c-0.3,0.3-0.7,0.5-1.1,0.5H14.7c-0.4,0-0.8,0.2-1.1,0.5C13.2,416,13.1,416.3,13.1,416.8z"/>
	<path class="st0" d="M51.9,434.8c2.4,1.5,4.7,2.8,7.1,3.6c2.3,0.9,4.5,1.3,6.5,1.3c1.9,0,3.4-0.3,4.4-0.8c1-0.5,1.5-1.4,1.5-2.5
		c0-0.6-0.2-1-0.7-1.4c-0.4-0.3-1-0.6-1.7-0.8c-0.7-0.2-1.6-0.4-2.5-0.5c-1-0.1-2-0.3-3-0.5c-1-0.2-2.1-0.4-3.4-0.6
		c-1.3-0.2-2.6-0.6-4-1.1c-1.4-0.5-2.7-1-4.1-1.7c-1.3-0.7-2.5-1.6-3.6-2.7c-1.1-1.1-1.9-2.4-2.5-3.9c-0.6-1.5-1-3.3-1-5.4
		c0-3,0.6-5.5,1.8-7.5c1.2-2,2.7-3.6,4.5-4.7c1.8-1.2,3.9-2,6.1-2.4s4.4-0.7,6.5-0.7c3.7,0,7,0.5,9.9,1.6c2.9,1.1,5.7,2.7,8.4,4.7
		c0.4,0.3,0.5,0.7,0.6,1.1c0,0.4-0.1,0.8-0.3,1.2l-5.1,7.3c-0.3,0.4-0.6,0.6-1.1,0.7c-0.4,0.1-0.8,0-1.2-0.3c-2.2-1.4-4.3-2.4-6.3-3
		c-1.9-0.6-3.7-0.9-5.3-0.9c-0.5,0-1,0-1.7,0c-0.6,0-1.2,0.1-1.8,0.3c-0.6,0.2-1,0.4-1.4,0.8c-0.4,0.4-0.6,0.8-0.6,1.5
		c0,0.6,0.5,1.2,1.4,1.7c0.9,0.5,2,0.9,3.2,1.3c1.2,0.4,2.3,0.6,3.4,0.8c1.1,0.2,1.8,0.3,2.1,0.4c1.6,0.3,3.3,0.8,5.2,1.4
		c1.9,0.6,3.7,1.5,5.3,2.6c1.6,1.2,3,2.7,4.2,4.6s1.7,4.2,1.7,7c0,2.6-0.5,4.9-1.4,6.8c-0.9,1.9-2.2,3.5-3.9,4.7
		c-1.6,1.2-3.6,2.1-5.9,2.7s-4.9,0.9-7.7,0.9c-2.3,0-4.4-0.2-6.4-0.6s-3.8-0.9-5.5-1.6c-1.7-0.7-3.3-1.4-4.8-2.3
		c-1.5-0.9-2.8-1.9-4.1-2.9c-0.4-0.3-0.6-0.6-0.6-1.1c0-0.5,0.1-0.9,0.3-1.2l5.1-7.3c0.3-0.4,0.6-0.6,1.1-0.7
		C51.2,434.5,51.6,434.6,51.9,434.8z"/>
	<path class="st0" d="M98.1,434.8c2.4,1.5,4.7,2.8,7.1,3.6c2.3,0.9,4.5,1.3,6.5,1.3c1.9,0,3.4-0.3,4.4-0.8c1-0.5,1.5-1.4,1.5-2.5
		c0-0.6-0.2-1-0.7-1.4c-0.4-0.3-1-0.6-1.7-0.8c-0.7-0.2-1.6-0.4-2.5-0.5c-1-0.1-2-0.3-3-0.5c-1-0.2-2.1-0.4-3.4-0.6
		c-1.3-0.2-2.6-0.6-4-1.1c-1.4-0.5-2.7-1-4.1-1.7c-1.3-0.7-2.5-1.6-3.6-2.7c-1.1-1.1-1.9-2.4-2.5-3.9c-0.6-1.5-1-3.3-1-5.4
		c0-3,0.6-5.5,1.8-7.5c1.2-2,2.7-3.6,4.5-4.7c1.8-1.2,3.9-2,6.1-2.4s4.4-0.7,6.5-0.7c3.7,0,7,0.5,9.9,1.6c2.9,1.1,5.7,2.7,8.4,4.7
		c0.4,0.3,0.5,0.7,0.6,1.1c0,0.4-0.1,0.8-0.3,1.2l-5.1,7.3c-0.3,0.4-0.6,0.6-1.1,0.7c-0.4,0.1-0.8,0-1.2-0.3c-2.2-1.4-4.3-2.4-6.3-3
		c-1.9-0.6-3.7-0.9-5.3-0.9c-0.5,0-1,0-1.7,0c-0.6,0-1.2,0.1-1.8,0.3c-0.6,0.2-1,0.4-1.4,0.8c-0.4,0.4-0.6,0.8-0.6,1.5
		c0,0.6,0.5,1.2,1.4,1.7c0.9,0.5,2,0.9,3.2,1.3c1.2,0.4,2.3,0.6,3.4,0.8c1.1,0.2,1.8,0.3,2.1,0.4c1.6,0.3,3.3,0.8,5.2,1.4
		c1.9,0.6,3.7,1.5,5.3,2.6c1.6,1.2,3,2.7,4.2,4.6s1.7,4.2,1.7,7c0,2.6-0.5,4.9-1.4,6.8c-0.9,1.9-2.2,3.5-3.9,4.7
		c-1.6,1.2-3.6,2.1-5.9,2.7s-4.9,0.9-7.7,0.9c-2.3,0-4.4-0.2-6.4-0.6s-3.8-0.9-5.5-1.6c-1.7-0.7-3.3-1.4-4.8-2.3
		c-1.5-0.9-2.8-1.9-4.1-2.9c-0.4-0.3-0.6-0.6-0.6-1.1c0-0.5,0.1-0.9,0.3-1.2l5.1-7.3c0.3-0.4,0.6-0.6,1.1-0.7
		C97.4,434.5,97.8,434.6,98.1,434.8z"/>
	<path class="st0" d="M151.9,416.8v2.8c0,0.4,0.2,0.8,0.5,1.1c0.3,0.3,0.7,0.5,1.1,0.5h17.9c0.4,0,0.8,0.2,1.1,0.5
		c0.3,0.3,0.5,0.7,0.5,1.1v9.1c0,0.4-0.2,0.8-0.5,1.1c-0.3,0.3-0.7,0.5-1.1,0.5h-17.9c-0.4,0-0.8,0.2-1.1,0.5
		c-0.3,0.3-0.5,0.7-0.5,1.1v2.5c0,0.4,0.2,0.8,0.5,1.1c0.3,0.3,0.7,0.5,1.1,0.5H174c0.4,0,0.8,0.2,1.1,0.5c0.3,0.3,0.5,0.7,0.5,1.1
		v9.1c0,0.4-0.2,0.8-0.5,1.1c-0.3,0.3-0.7,0.5-1.1,0.5h-33.6c-0.4,0-0.8-0.2-1.1-0.5c-0.3-0.3-0.5-0.7-0.5-1.1v-45.1
		c0-0.4,0.2-0.8,0.5-1.1c0.3-0.3,0.7-0.5,1.1-0.5H174c0.4,0,0.8,0.2,1.1,0.5c0.3,0.3,0.5,0.7,0.5,1.1v9c0,0.4-0.2,0.8-0.5,1.1
		c-0.3,0.3-0.7,0.5-1.1,0.5h-20.5c-0.4,0-0.8,0.2-1.1,0.5C152,416,151.9,416.3,151.9,416.8z"/>
	<path class="st0" d="M230.7,404.6v45.1c0,0.4-0.2,0.8-0.5,1.1c-0.3,0.3-0.7,0.5-1.1,0.5h-9.7c-0.4,0-0.9-0.1-1.4-0.4
		c-0.5-0.3-0.9-0.6-1.1-0.9l-17.2-24.2c-0.3-0.4-0.5-0.5-0.8-0.4c-0.3,0.1-0.4,0.3-0.4,0.8v23.6c0,0.4-0.2,0.8-0.5,1.1
		c-0.3,0.3-0.7,0.5-1.1,0.5h-9.9c-0.4,0-0.8-0.2-1.1-0.5c-0.3-0.3-0.5-0.7-0.5-1.1v-45.1c0-0.4,0.2-0.8,0.5-1.1
		c0.3-0.3,0.7-0.5,1.1-0.5h9.9c0.4,0,0.9,0.1,1.4,0.4c0.5,0.2,0.9,0.5,1.1,0.9l17.2,24.2c0.3,0.4,0.5,0.5,0.8,0.5
		c0.3,0,0.4-0.3,0.4-0.7v-23.6c0-0.4,0.2-0.8,0.5-1.1c0.3-0.3,0.7-0.5,1.1-0.5h9.8c0.4,0,0.8,0.2,1.1,0.5
		C230.5,403.8,230.7,404.2,230.7,404.6z"/>
	<path class="st0" d="M274.2,415.2H265c-0.4,0-0.8,0.2-1.1,0.5c-0.3,0.3-0.5,0.7-0.5,1.1v33c0,0.4-0.1,0.8-0.4,1.1
		c-0.3,0.3-0.7,0.5-1.2,0.5h-9.9c-0.4,0-0.8-0.2-1.1-0.5c-0.3-0.3-0.5-0.7-0.5-1.1v-33c0-0.4-0.1-0.8-0.4-1.1
		c-0.3-0.3-0.7-0.5-1.2-0.5h-9.4c-0.4,0-0.8-0.2-1.1-0.5c-0.3-0.3-0.5-0.7-0.5-1.1v-9c0-0.4,0.2-0.8,0.5-1.1
		c0.3-0.3,0.7-0.5,1.1-0.5h34.8c0.5,0,0.9,0.2,1.2,0.5c0.3,0.3,0.4,0.7,0.4,1.1v9c0,0.4-0.1,0.8-0.4,1.1
		C275.1,415.1,274.7,415.2,274.2,415.2z"/>
	<path class="st0" d="M294.2,451.4h-9.9c-0.5,0-0.9-0.2-1.1-0.5c-0.3-0.3-0.4-0.7-0.4-1.1v-45.1c0-0.4,0.1-0.8,0.4-1.1
		c0.3-0.3,0.7-0.5,1.1-0.5h9.9c0.4,0,0.8,0.2,1.1,0.5c0.3,0.3,0.5,0.7,0.5,1.1v45.1c0,0.4-0.2,0.8-0.5,1.1
		C295,451.2,294.7,451.4,294.2,451.4z"/>
	<path class="st0" d="M320.2,404.6c0.2-0.4,0.5-0.7,0.9-1c0.4-0.3,0.9-0.4,1.4-0.4h9.2c0.4,0,0.9,0.1,1.3,0.4c0.4,0.3,0.7,0.6,0.9,1
		l19.3,44.9c0.2,0.4,0.1,0.8-0.1,1.3c-0.2,0.4-0.7,0.7-1.4,0.7h-11.3c-0.5,0-0.9-0.1-1.4-0.4c-0.4-0.3-0.7-0.6-1-1l-1.8-4
		c-0.2-0.4-0.5-0.7-1-1c-0.4-0.3-0.8-0.4-1.3-0.4h-13.9c-0.5,0-0.9,0.1-1.4,0.4c-0.4,0.3-0.7,0.6-0.9,1l-1.8,4
		c-0.2,0.4-0.5,0.7-0.9,1c-0.4,0.3-0.8,0.4-1.3,0.4h-11.4c-0.2,0-0.5,0-0.7-0.1c-0.2-0.1-0.4-0.2-0.6-0.4c-0.2-0.2-0.3-0.4-0.3-0.7
		c0-0.3,0-0.6,0.2-0.9L320.2,404.6z M324.1,433.3h5.9c0.4,0,0.8-0.1,1-0.4c0.2-0.3,0.2-0.6,0-1c-0.4-1.1-1-2.4-1.6-3.9
		c-0.6-1.5-1.2-2.8-1.7-4.1c-0.2-0.4-0.4-0.6-0.6-0.6c-0.2,0-0.4,0.2-0.6,0.6l-3.3,8c-0.2,0.4-0.2,0.7,0,1
		C323.3,433.1,323.6,433.3,324.1,433.3z"/>
	<path class="st0" d="M393.6,440.8v9c0,0.4-0.2,0.8-0.5,1.1c-0.3,0.3-0.7,0.5-1.1,0.5H359c-0.5,0-0.9-0.2-1.2-0.5
		c-0.3-0.3-0.4-0.7-0.4-1.1v-45.1c0-0.4,0.1-0.8,0.4-1.1c0.3-0.3,0.7-0.5,1.2-0.5h9.9c0.4,0,0.8,0.2,1.1,0.5
		c0.3,0.3,0.5,0.7,0.5,1.1v33c0,0.4,0.1,0.8,0.4,1.1c0.3,0.3,0.7,0.5,1.2,0.5H392c0.4,0,0.8,0.2,1.1,0.5
		C393.4,440,393.6,440.4,393.6,440.8z"/>
</g>
<g>
	<g>
		<path class="st0" d="M311.8,245.8V145.6c0-9-7.6-16.8-16.8-16.8H102.8c-9.2,0-16.8,7.6-16.8,16.8v100.5c0,9,7.6,16.8,16.8,16.8
			H295C304.5,262.6,311.8,255,311.8,245.8z M102.8,254.2c-4.5,0-8.4-3.9-8.4-8.4V145.6c0-4.5,3.6-8.4,8.4-8.4H295
			c4.5,0,8.4,3.9,8.4,8.4v100.5c0,4.5-3.6,8.4-8.4,8.4H102.8V254.2z"/>
		<path class="st0" d="M119.5,145.6v100.5h159V145.6H119.5z M270.1,154v83.7H127.9V154H270.1z"/>
		<path class="st0" d="M77.6,229.3h-8.4c-4.5,0-8.4-3.6-8.4-8.4V28.6c0-4.5,3.9-8.4,8.4-8.4h100.5c4.5,0,8.4,3.6,8.4,8.4v91.8h8.4
			V28.6c0-9.2-7.6-16.8-16.8-16.8H69.5c-9,0-16.8,7.6-16.8,16.8v192.3c0,9.2,7.6,16.8,16.8,16.8h8.4v-8.4H77.6z"/>
		<polygon class="st0" points="77.6,195.7 77.6,128.8 77.6,53.5 161.3,53.5 161.3,120.4 169.6,120.4 169.6,45.1 69.5,45.1 
			69.5,204.1 77.6,204.1 		"/>
		<path class="st0" d="M296.1,88.8l-10.9,14.6c-7-36.9-35.8-66-72.8-73l14.3-10.6l-5-6.7l-27.1,19.6l19.6,27.1l6.7-5l-12-16.8
			c34.4,5.9,61.9,33.3,68,67.7l-16.2-12.3l-5,6.7l26.6,20.2l20.2-26.6L296.1,88.8z"/>
	</g>
</g>
</svg>
