<?xml version="1.0" encoding="utf-8"?>
<!-- Generator: Adobe Illustrator 21.1.0, SVG Export Plug-In . SVG Version: 6.00 Build 0)  -->
<svg version="1.1" id="Layer_1" xmlns="http://www.w3.org/2000/svg" xmlns:xlink="http://www.w3.org/1999/xlink" x="0px" y="0px"
	 viewBox="0 0 393.6 452.2" style="enable-background:new 0 0 393.6 452.2;" xml:space="preserve">
<style type="text/css">
	.st0{fill:#FFFFFF;}
</style>
<g>
	<path class="st0" d="M88.6,381.4l-12.8-14.3c-0.3-0.4-0.6-0.5-0.8-0.4c-0.2,0.1-0.3,0.4-0.3,0.8V381c0,0.4-0.2,0.8-0.5,1.1
		c-0.3,0.3-0.7,0.5-1.1,0.5h-9.9c-0.5,0-0.9-0.2-1.2-0.5c-0.3-0.3-0.4-0.7-0.4-1.1v-45.1c0-0.4,0.1-0.8,0.4-1.1
		c0.3-0.3,0.7-0.5,1.2-0.5h9.9c0.4,0,0.8,0.2,1.1,0.5c0.3,0.3,0.5,0.7,0.5,1.1V351c0,0.4,0.1,0.7,0.3,0.8c0.2,0.1,0.4-0.1,0.7-0.4
		l11.9-15.8c0.3-0.4,0.6-0.6,1.1-0.9c0.5-0.2,1-0.4,1.5-0.4h12.6c0.5,0,0.8,0.2,0.9,0.6c0.1,0.4,0.1,0.8-0.2,1.2l-17.4,21.7
		c-0.3,0.4-0.4,0.8-0.4,1.2c0,0.5,0.2,0.8,0.5,1.2c1.5,1.6,3.1,3.3,4.8,5.1c1.7,1.8,3.3,3.5,5,5.3c1.7,1.8,3.3,3.5,4.9,5.3
		c1.6,1.7,3.1,3.4,4.6,4.9c0.3,0.4,0.4,0.7,0.3,1.2c-0.1,0.4-0.4,0.7-0.9,0.7H91.2c-0.5,0-1-0.1-1.5-0.3
		C89.2,382,88.8,381.7,88.6,381.4z"/>
	<path class="st0" d="M124.3,348v2.8c0,0.4,0.2,0.8,0.5,1.1c0.3,0.3,0.7,0.5,1.1,0.5h17.9c0.4,0,0.8,0.2,1.1,0.5
		c0.3,0.3,0.5,0.7,0.5,1.1v9.1c0,0.4-0.2,0.8-0.5,1.1c-0.3,0.3-0.7,0.5-1.1,0.5h-17.9c-0.4,0-0.8,0.2-1.1,0.5
		c-0.3,0.3-0.5,0.7-0.5,1.1v2.5c0,0.4,0.2,0.8,0.5,1.1c0.3,0.3,0.7,0.5,1.1,0.5h20.5c0.4,0,0.8,0.2,1.1,0.5c0.3,0.3,0.5,0.7,0.5,1.1
		v9.1c0,0.4-0.2,0.8-0.5,1.1c-0.3,0.3-0.7,0.5-1.1,0.5h-33.6c-0.4,0-0.8-0.2-1.1-0.5c-0.3-0.3-0.5-0.7-0.5-1.1v-45.1
		c0-0.4,0.2-0.8,0.5-1.1c0.3-0.3,0.7-0.5,1.1-0.5h33.6c0.4,0,0.8,0.2,1.1,0.5c0.3,0.3,0.5,0.7,0.5,1.1v9c0,0.4-0.2,0.8-0.5,1.1
		c-0.3,0.3-0.7,0.5-1.1,0.5h-20.5c-0.4,0-0.8,0.2-1.1,0.5C124.4,347.2,124.3,347.5,124.3,348z"/>
	<path class="st0" d="M170.7,348v2.8c0,0.4,0.2,0.8,0.5,1.1c0.3,0.3,0.7,0.5,1.1,0.5h17.9c0.4,0,0.8,0.2,1.1,0.5
		c0.3,0.3,0.5,0.7,0.5,1.1v9.1c0,0.4-0.2,0.8-0.5,1.1c-0.3,0.3-0.7,0.5-1.1,0.5h-17.9c-0.4,0-0.8,0.2-1.1,0.5
		c-0.3,0.3-0.5,0.7-0.5,1.1v2.5c0,0.4,0.2,0.8,0.5,1.1c0.3,0.3,0.7,0.5,1.1,0.5h20.5c0.4,0,0.8,0.2,1.1,0.5c0.3,0.3,0.5,0.7,0.5,1.1
		v9.1c0,0.4-0.2,0.8-0.5,1.1c-0.3,0.3-0.7,0.5-1.1,0.5h-33.6c-0.4,0-0.8-0.2-1.1-0.5c-0.3-0.3-0.5-0.7-0.5-1.1v-45.1
		c0-0.4,0.2-0.8,0.5-1.1c0.3-0.3,0.7-0.5,1.1-0.5h33.6c0.4,0,0.8,0.2,1.1,0.5c0.3,0.3,0.5,0.7,0.5,1.1v9c0,0.4-0.2,0.8-0.5,1.1
		c-0.3,0.3-0.7,0.5-1.1,0.5h-20.5c-0.4,0-0.8,0.2-1.1,0.5C170.8,347.2,170.7,347.5,170.7,348z"/>
	<path class="st0" d="M224.4,369.6h-5.8c-0.4,0-0.8,0.2-1.1,0.5c-0.3,0.3-0.5,0.7-0.5,1.1v9.8c0,0.4-0.2,0.8-0.5,1.1
		c-0.3,0.3-0.7,0.5-1.1,0.5h-9.9c-0.4,0-0.8-0.2-1.1-0.5c-0.3-0.3-0.5-0.7-0.5-1.1v-45.1c0-0.4,0.2-0.8,0.5-1.1
		c0.3-0.3,0.7-0.5,1.1-0.5h20.2c2.5,0,4.8,0.5,7,1.4c2.2,0.9,4.1,2.2,5.7,3.8c1.6,1.6,2.9,3.5,3.8,5.7c0.9,2.2,1.4,4.5,1.4,6.9
		c0,2.5-0.4,4.8-1.2,6.9c-0.8,2.1-2,4-3.6,5.5c-1.6,1.6-3.6,2.8-6,3.7C230.4,369.1,227.6,369.6,224.4,369.6z M224.9,346.4h-6.2
		c-0.4,0-0.8,0.2-1.1,0.5c-0.3,0.3-0.5,0.7-0.5,1.1v7.7c0,0.4,0.2,0.8,0.5,1.1c0.3,0.3,0.7,0.5,1.1,0.5h7.1c1.7,0,2.9-0.5,3.7-1.6
		s1.2-2.3,1.2-3.6c0-0.7-0.1-1.4-0.4-2.1c-0.2-0.7-0.6-1.3-1.1-1.8c-0.5-0.5-1.1-1-1.8-1.3C226.6,346.6,225.8,346.4,224.9,346.4z"/>
	<path class="st0" d="M286.1,382.6h-9.9c-0.5,0-0.9-0.2-1.1-0.5c-0.3-0.3-0.4-0.7-0.4-1.1v-45.1c0-0.4,0.1-0.8,0.4-1.1
		c0.3-0.3,0.7-0.5,1.1-0.5h9.9c0.4,0,0.8,0.2,1.1,0.5c0.3,0.3,0.5,0.7,0.5,1.1V381c0,0.4-0.2,0.8-0.5,1.1
		C286.9,382.4,286.5,382.6,286.1,382.6z"/>
	<path class="st0" d="M330.1,346.4h-9.2c-0.4,0-0.8,0.2-1.1,0.5c-0.3,0.3-0.5,0.7-0.5,1.1v33c0,0.4-0.1,0.8-0.4,1.1
		c-0.3,0.3-0.7,0.5-1.2,0.5h-9.9c-0.4,0-0.8-0.2-1.1-0.5c-0.3-0.3-0.5-0.7-0.5-1.1v-33c0-0.4-0.1-0.8-0.4-1.1
		c-0.3-0.3-0.7-0.5-1.2-0.5h-9.4c-0.4,0-0.8-0.2-1.1-0.5c-0.3-0.3-0.5-0.7-0.5-1.1v-9c0-0.4,0.2-0.8,0.5-1.1
		c0.3-0.3,0.7-0.5,1.1-0.5h34.8c0.5,0,0.9,0.2,1.2,0.5c0.3,0.3,0.4,0.7,0.4,1.1v9c0,0.4-0.1,0.8-0.4,1.1
		C330.9,346.3,330.5,346.4,330.1,346.4z"/>
	<path class="st0" d="M13.1,416.8v2.8c0,0.4,0.2,0.8,0.5,1.1c0.3,0.3,0.7,0.5,1.1,0.5h17.9c0.4,0,0.8,0.2,1.1,0.5
		c0.3,0.3,0.5,0.7,0.5,1.1v9.1c0,0.4-0.2,0.8-0.5,1.1c-0.3,0.3-0.7,0.5-1.1,0.5H14.7c-0.4,0-0.8,0.2-1.1,0.5
		c-0.3,0.3-0.5,0.7-0.5,1.1v2.5c0,0.4,0.2,0.8,0.5,1.1c0.3,0.3,0.7,0.5,1.1,0.5h20.5c0.4,0,0.8,0.2,1.1,0.5c0.3,0.3,0.5,0.7,0.5,1.1
		v9.1c0,0.4-0.2,0.8-0.5,1.1c-0.3,0.3-0.7,0.5-1.1,0.5H1.6c-0.4,0-0.8-0.2-1.1-0.5c-0.3-0.3-0.5-0.7-0.5-1.1v-45.1
		c0-0.4,0.2-0.8,0.5-1.1c0.3-0.3,0.7-0.5,1.1-0.5h33.6c0.4,0,0.8,0.2,1.1,0.5c0.3,0.3,0.5,0.7,0.5,1.1v9c0,0.4-0.2,0.8-0.5,1.1
		c-0.3,0.3-0.7,0.5-1.1,0.5H14.7c-0.4,0-0.8,0.2-1.1,0.5C13.2,416,13.1,416.3,13.1,416.8z"/>
	<path class="st0" d="M51.9,434.8c2.4,1.5,4.7,2.8,7.1,3.6c2.3,0.9,4.5,1.3,6.5,1.3c1.9,0,3.4-0.3,4.4-0.8c1-0.5,1.5-1.4,1.5-2.5
		c0-0.6-0.2-1-0.7-1.4c-0.4-0.3-1-0.6-1.7-0.8c-0.7-0.2-1.6-0.4-2.5-0.5c-1-0.1-2-0.3-3-0.5c-1-0.2-2.1-0.4-3.4-0.6
		c-1.3-0.2-2.6-0.6-4-1.1c-1.4-0.5-2.7-1-4.1-1.7c-1.3-0.7-2.5-1.6-3.6-2.7c-1.1-1.1-1.9-2.4-2.5-3.9c-0.6-1.5-1-3.3-1-5.4
		c0-3,0.6-5.5,1.8-7.5c1.2-2,2.7-3.6,4.5-4.7c1.8-1.2,3.9-2,6.1-2.4s4.4-0.7,6.5-0.7c3.7,0,7,0.5,9.9,1.6c2.9,1.1,5.7,2.7,8.4,4.7
		c0.4,0.3,0.5,0.7,0.6,1.1c0,0.4-0.1,0.8-0.3,1.2l-5.1,7.3c-0.3,0.4-0.6,0.6-1.1,0.7c-0.4,0.1-0.8,0-1.2-0.3c-2.2-1.4-4.3-2.4-6.3-3
		c-1.9-0.6-3.7-0.9-5.3-0.9c-0.5,0-1,0-1.7,0c-0.6,0-1.2,0.1-1.8,0.3c-0.6,0.2-1,0.4-1.4,0.8c-0.4,0.4-0.6,0.8-0.6,1.5
		c0,0.6,0.5,1.2,1.4,1.7c0.9,0.5,2,0.9,3.2,1.3c1.2,0.4,2.3,0.6,3.4,0.8c1.1,0.2,1.8,0.3,2.1,0.4c1.6,0.3,3.3,0.8,5.2,1.4
		c1.9,0.6,3.7,1.5,5.3,2.6c1.6,1.2,3,2.7,4.2,4.6s1.7,4.2,1.7,7c0,2.6-0.5,4.9-1.4,6.8c-0.9,1.9-2.2,3.5-3.9,4.7
		c-1.6,1.2-3.6,2.1-5.9,2.7s-4.9,0.9-7.7,0.9c-2.3,0-4.4-0.2-6.4-0.6s-3.8-0.9-5.5-1.6c-1.7-0.7-3.3-1.4-4.8-2.3
		c-1.5-0.9-2.8-1.9-4.1-2.9c-0.4-0.3-0.6-0.6-0.6-1.1c0-0.5,0.1-0.9,0.3-1.2l5.1-7.3c0.3-0.4,0.6-0.6,1.1-0.7
		C51.2,434.5,51.6,434.6,51.9,434.8z"/>
	<path class="st0" d="M98.1,434.8c2.4,1.5,4.7,2.8,7.1,3.6c2.3,0.9,4.5,1.3,6.5,1.3c1.9,0,3.4-0.3,4.4-0.8c1-0.5,1.5-1.4,1.5-2.5
		c0-0.6-0.2-1-0.7-1.4c-0.4-0.3-1-0.6-1.7-0.8c-0.7-0.2-1.6-0.4-2.5-0.5c-1-0.1-2-0.3-3-0.5c-1-0.2-2.1-0.4-3.4-0.6
		c-1.3-0.2-2.6-0.6-4-1.1c-1.4-0.5-2.7-1-4.1-1.7c-1.3-0.7-2.5-1.6-3.6-2.7c-1.1-1.1-1.9-2.4-2.5-3.9c-0.6-1.5-1-3.3-1-5.4
		c0-3,0.6-5.5,1.8-7.5c1.2-2,2.7-3.6,4.5-4.7c1.8-1.2,3.9-2,6.1-2.4s4.4-0.7,6.5-0.7c3.7,0,7,0.5,9.9,1.6c2.9,1.1,5.7,2.7,8.4,4.7
		c0.4,0.3,0.5,0.7,0.6,1.1c0,0.4-0.1,0.8-0.3,1.2l-5.1,7.3c-0.3,0.4-0.6,0.6-1.1,0.7c-0.4,0.1-0.8,0-1.2-0.3c-2.2-1.4-4.3-2.4-6.3-3
		c-1.9-0.6-3.7-0.9-5.3-0.9c-0.5,0-1,0-1.7,0c-0.6,0-1.2,0.1-1.8,0.3c-0.6,0.2-1,0.4-1.4,0.8c-0.4,0.4-0.6,0.8-0.6,1.5
		c0,0.6,0.5,1.2,1.4,1.7c0.9,0.5,2,0.9,3.2,1.3c1.2,0.4,2.3,0.6,3.4,0.8c1.1,0.2,1.8,0.3,2.1,0.4c1.6,0.3,3.3,0.8,5.2,1.4
		c1.9,0.6,3.7,1.5,5.3,2.6c1.6,1.2,3,2.7,4.2,4.6s1.7,4.2,1.7,7c0,2.6-0.5,4.9-1.4,6.8c-0.9,1.9-2.2,3.5-3.9,4.7
		c-1.6,1.2-3.6,2.1-5.9,2.7s-4.9,0.9-7.7,0.9c-2.3,0-4.4-0.2-6.4-0.6s-3.8-0.9-5.5-1.6c-1.7-0.7-3.3-1.4-4.8-2.3
		c-1.5-0.9-2.8-1.9-4.1-2.9c-0.4-0.3-0.6-0.6-0.6-1.1c0-0.5,0.1-0.9,0.3-1.2l5.1-7.3c0.3-0.4,0.6-0.6,1.1-0.7
		C97.4,434.5,97.8,434.6,98.1,434.8z"/>
	<path class="st0" d="M151.9,416.8v2.8c0,0.4,0.2,0.8,0.5,1.1c0.3,0.3,0.7,0.5,1.1,0.5h17.9c0.4,0,0.8,0.2,1.1,0.5
		c0.3,0.3,0.5,0.7,0.5,1.1v9.1c0,0.4-0.2,0.8-0.5,1.1c-0.3,0.3-0.7,0.5-1.1,0.5h-17.9c-0.4,0-0.8,0.2-1.1,0.5
		c-0.3,0.3-0.5,0.7-0.5,1.1v2.5c0,0.4,0.2,0.8,0.5,1.1c0.3,0.3,0.7,0.5,1.1,0.5H174c0.4,0,0.8,0.2,1.1,0.5c0.3,0.3,0.5,0.7,0.5,1.1
		v9.1c0,0.4-0.2,0.8-0.5,1.1c-0.3,0.3-0.7,0.5-1.1,0.5h-33.6c-0.4,0-0.8-0.2-1.1-0.5c-0.3-0.3-0.5-0.7-0.5-1.1v-45.1
		c0-0.4,0.2-0.8,0.5-1.1c0.3-0.3,0.7-0.5,1.1-0.5H174c0.4,0,0.8,0.2,1.1,0.5c0.3,0.3,0.5,0.7,0.5,1.1v9c0,0.4-0.2,0.8-0.5,1.1
		c-0.3,0.3-0.7,0.5-1.1,0.5h-20.5c-0.4,0-0.8,0.2-1.1,0.5C152,416,151.9,416.3,151.9,416.8z"/>
	<path class="st0" d="M230.7,404.6v45.1c0,0.4-0.2,0.8-0.5,1.1c-0.3,0.3-0.7,0.5-1.1,0.5h-9.7c-0.4,0-0.9-0.1-1.4-0.4
		c-0.5-0.3-0.9-0.6-1.1-0.9l-17.2-24.2c-0.3-0.4-0.5-0.5-0.8-0.4c-0.3,0.1-0.4,0.3-0.4,0.8v23.6c0,0.4-0.2,0.8-0.5,1.1
		c-0.3,0.3-0.7,0.5-1.1,0.5h-9.9c-0.4,0-0.8-0.2-1.1-0.5c-0.3-0.3-0.5-0.7-0.5-1.1v-45.1c0-0.4,0.2-0.8,0.5-1.1
		c0.3-0.3,0.7-0.5,1.1-0.5h9.9c0.4,0,0.9,0.1,1.4,0.4c0.5,0.2,0.9,0.5,1.1,0.9l17.2,24.2c0.3,0.4,0.5,0.5,0.8,0.5
		c0.3,0,0.4-0.3,0.4-0.7v-23.6c0-0.4,0.2-0.8,0.5-1.1c0.3-0.3,0.7-0.5,1.1-0.5h9.8c0.4,0,0.8,0.2,1.1,0.5
		C230.5,403.8,230.7,404.2,230.7,404.6z"/>
	<path class="st0" d="M274.2,415.2H265c-0.4,0-0.8,0.2-1.1,0.5c-0.3,0.3-0.5,0.7-0.5,1.1v33c0,0.4-0.1,0.8-0.4,1.1
		c-0.3,0.3-0.7,0.5-1.2,0.5h-9.9c-0.4,0-0.8-0.2-1.1-0.5c-0.3-0.3-0.5-0.7-0.5-1.1v-33c0-0.4-0.1-0.8-0.4-1.1
		c-0.3-0.3-0.7-0.5-1.2-0.5h-9.4c-0.4,0-0.8-0.2-1.1-0.5c-0.3-0.3-0.5-0.7-0.5-1.1v-9c0-0.4,0.2-0.8,0.5-1.1
		c0.3-0.3,0.7-0.5,1.1-0.5h34.8c0.5,0,0.9,0.2,1.2,0.5c0.3,0.3,0.4,0.7,0.4,1.1v9c0,0.4-0.1,0.8-0.4,1.1
		C275.1,415.1,274.7,415.2,274.2,415.2z"/>
	<path class="st0" d="M294.2,451.4h-9.9c-0.5,0-0.9-0.2-1.1-0.5c-0.3-0.3-0.4-0.7-0.4-1.1v-45.1c0-0.4,0.1-0.8,0.4-1.1
		c0.3-0.3,0.7-0.5,1.1-0.5h9.9c0.4,0,0.8,0.2,1.1,0.5c0.3,0.3,0.5,0.7,0.5,1.1v45.1c0,0.4-0.2,0.8-0.5,1.1
		C295,451.2,294.7,451.4,294.2,451.4z"/>
	<path class="st0" d="M320.2,404.6c0.2-0.4,0.5-0.7,0.9-1c0.4-0.3,0.9-0.4,1.4-0.4h9.2c0.4,0,0.9,0.1,1.3,0.4c0.4,0.3,0.7,0.6,0.9,1
		l19.3,44.9c0.2,0.4,0.1,0.8-0.1,1.3c-0.2,0.4-0.7,0.7-1.4,0.7h-11.3c-0.5,0-0.9-0.1-1.4-0.4c-0.4-0.3-0.7-0.6-1-1l-1.8-4
		c-0.2-0.4-0.5-0.7-1-1c-0.4-0.3-0.8-0.4-1.3-0.4h-13.9c-0.5,0-0.9,0.1-1.4,0.4c-0.4,0.3-0.7,0.6-0.9,1l-1.8,4
		c-0.2,0.4-0.5,0.7-0.9,1c-0.4,0.3-0.8,0.4-1.3,0.4h-11.4c-0.2,0-0.5,0-0.7-0.1c-0.2-0.1-0.4-0.2-0.6-0.4c-0.2-0.2-0.3-0.4-0.3-0.7
		c0-0.3,0-0.6,0.2-0.9L320.2,404.6z M324.1,433.3h5.9c0.4,0,0.8-0.1,1-0.4c0.2-0.3,0.2-0.6,0-1c-0.4-1.1-1-2.4-1.6-3.9
		c-0.6-1.5-1.2-2.8-1.7-4.1c-0.2-0.4-0.4-0.6-0.6-0.6c-0.2,0-0.4,0.2-0.6,0.6l-3.3,8c-0.2,0.4-0.2,0.7,0,1
		C323.3,433.1,323.6,433.3,324.1,433.3z"/>
	<path class="st0" d="M393.6,440.8v9c0,0.4-0.2,0.8-0.5,1.1c-0.3,0.3-0.7,0.5-1.1,0.5H359c-0.5,0-0.9-0.2-1.2-0.5
		c-0.3-0.3-0.4-0.7-0.4-1.1v-45.1c0-0.4,0.1-0.8,0.4-1.1c0.3-0.3,0.7-0.5,1.2-0.5h9.9c0.4,0,0.8,0.2,1.1,0.5
		c0.3,0.3,0.5,0.7,0.5,1.1v33c0,0.4,0.1,0.8,0.4,1.1c0.3,0.3,0.7,0.5,1.2,0.5H392c0.4,0,0.8,0.2,1.1,0.5
		C393.4,440,393.6,440.4,393.6,440.8z"/>
</g>
<g>
	<g>
		<g>
			<path class="st0" d="M121.1,265.2c-12.8-5.3-23.2-15.2-29.1-27.8l-9.1-19.2c-8-17.5-5.7-12.2-13.4-29.9
				c-7.4-17.1-15.2-34-22.8-51s-15.4-34-23.2-51c-0.8-1.5-0.9-3.2-1.2-5c-0.5-3.5-1.2-6.8-0.5-10.3c-0.8-1.1,0.3-1.8,0.5-2.9
				c1.2-6,2.6-9.8,5.4-14.5c1.5-2,5.1-7.2,8.1-8.5c3.8-3.9,8.8-5.7,13.6-7.7c5-2,10.3-2.7,15.7-2.1c2.7,0.3,5.6,0.5,8.1,1.7
				c1.1,0.5,2.1,0.8,3.2,1.2c5.7,2,10.4,5.4,14.3,10.1c2,2.3,3.8,4.7,5,7.4c5.7,12.7,11.5,25.2,17.2,37.9c0.3,0.6,0.3,1.2,0.5,1.8
				c0.3,0,0.5-0.2,0.8-0.2c0.5-1.1,0.8-2.1,1.2-3c7.5-20.2,15.1-40.4,22.6-60.7c0.3-0.8,0.3-1.8,0.9-2.1c2-1.5,1.7-4.2,3.2-5.9
				c1.7-2,3.2-4.1,4.8-6c4.1-4.4,9.1-7.5,14.6-9.5c5.1-1.8,10.3-2.6,15.7-2.1c1.5,0.2,3,0.9,4.4,0.9c1.5,0,2.7,0.5,4.1,0.9
				c6.9,2.1,12.4,6.2,17.2,11.6c1.4-0.8,2.7-1.4,3.9-2.3c2-1.5,4.1-2.1,6.3-3c3.2-1.2,6.3-1.8,9.5-2.1c3.9-0.3,7.7-0.2,11.5,1.1
				c1.7,0.6,3.6,0.5,5.3,1.4c2.1,1.2,4.1,2.3,6.2,3.5c4.2,2.3,7.5,5.7,10.3,9.4s5,8,6,12.7c0.2,0.8,0.6,1.4,0.9,2.1
				c11-2,20.7,1.1,29.4,8c0.3-0.8,0.6-1.5,0.9-2.3c2.6-6.6,5-13.4,7.5-20.1c1.2-3.2,2.4-6.3,4.2-9.2c2.9-4.7,6.6-8.8,11.3-11.9
				c2-1.2,3.9-2.3,6-3.3c5.6-2.6,11.5-3.3,17.5-3.3c1.5,0,3.2,0.5,4.7,0.8c1.2,0.2,2.6,0.3,3.8,0.8c1.2,0.3,2.3,0.8,3.5,1.2
				c6.5,2.9,12.4,6.8,16.4,12.8c4.1,6,6.9,12.7,7.1,20.1c0.2,3,0,6-0.6,9.1c-0.5,2.1-1.1,4.2-1.8,6.2
				c-22.5,60.1-45,120.3-67.5,180.3c-0.8,2-1.2,3.9-2.7,5.6c-1.2,1.5-0.9,3.9-2.7,5.1c-0.6,3-3,5.1-4.5,7.7
				c-1.7,2.7-3.9,5.3-5.7,7.8c-3.2,4.5-9.7,10.6-14.2,13.7c-2.6,1.8-5.1,3.6-7.8,5.4c-2.9,2-5.7,3.8-9.1,5.1
				c-2.9,1.2-5.7,2.6-8.6,3.9c-5.3,2.6-10.9,3.8-16.6,5.1c-5,1.2-10.1,1.8-15.1,2.3c-4.7,0.3-9.4,0.2-13.9-0.2
				c-3.3-0.3-6.5-0.2-9.7-1.5c-1.8,0.8-3.2-0.8-5-0.8c-1.7,0-3.3-1.4-5-1.5c-3.3-0.3-6-1.7-9.1-2.7c-3-1.1-6-2.3-9.1-3.5
				c-16.8-6.3-11.2-4.1-27.9-10.4L121.1,265.2z M349.3,41.4c1.2-2.9,0.8-5.6,0-8.3c-0.8-2.4-2.9-3.9-4.5-6c-1.2-0.5-2.7-1.1-4.1-1.5
				c-2.7-0.9-7.2-0.2-9.7,1.5c-1.2,0.9-2.4,1.5-3.3,2.9c-0.8,1.4-1.7,2.7-2.3,4.2c-16.3,43.5-32.6,86.9-48.7,130.4
				c-1.1,2.7-2.6,4.8-4.1,7.1c-2.7,3.9-6.3,7.1-10.4,9.8c-5,3.3-11.9,5.1-19,5.6c-4.4,0.3-8.6-0.6-12.8-1.7
				c-3.5-0.9-6.5-2.9-9.4-4.8c-3.5-2.3-6.8-5.3-9.4-9.1c-1.1-1.5-2.3-3-3.2-4.2c-2.3,0.5-4.2,1.1-6.2,1.4c-2,0.5-4.1,0.8-6.2,0.9
				c-4.5,0.3-8.8-0.6-13.1-1.8c-3.5-0.9-6.5-3-9.4-4.8c-3.5-2.3-6.5-5.1-8.9-8.6c-1.2-1.7-2.3-3.3-3.3-4.8c-8.5,5.1-18.7,6-28.7,3.9
				c-14.8-3.2-26.6-14.3-32.7-28.1c-9.1-19.2-17.8-38.5-26.4-57.6c-1.1-2.4-2.9-4.2-5-5.6c-2-1.4-4.5-1.7-7.1-1.5
				c-2.7,0.2-4.8,1.4-7.1,2.4c-4.5,2.1-7.2,5.4-7.4,10.6c0,0.9-0.2,1.8-0.2,3.2l68.2,150c3.3,7.4,9.7,13.3,17.4,16.1
				c17.8,6.6,35.6,13.3,53.3,19.9c3,1.1,5.9,2.3,9.1,2.9c2.9,0.5,5.6,1.1,8.5,1.5c3.6,0.6,7.2,0.8,10.9,0.6
				c3.8-0.2,7.4-0.3,11.2-0.9c4.7-0.9,9.4-2,13.7-3.8c3.8-1.7,7.7-3.3,11.3-5.4c5-2.9,9.5-6.3,13.7-10.1c2.7-2.4,5.1-5.1,7.2-8
				c2-2.6,4.4-5,5.3-8.1c1.5-0.6,1.2-2.3,2-3.3L349.3,41.4z M187.3,142.2c0.9,0.3,2,0.6,2.9,1.1c3.5,1.5,6.8,1.4,10.3-0.5
				c2.6-1.4,4.4-3.2,5.4-5.9c10.6-28.1,21-56.1,31.5-84.2c1.1-2.7,0.8-5.3-0.2-7.7c-1.7-4.4-5-7.1-9.5-8c-2.9-0.6-6-0.2-8.6,1.4
				c-2.7,1.7-4.5,4.2-5.7,7.4c-7.5,20.2-15.1,40.4-22.6,60.7c-2.6,6.9-5.1,13.9-7.7,20.7c-0.8,2-1.1,3.9-0.8,5.9
				c0.5,2.7,0.9,5.4,3.5,7.2C186.3,140.8,186.7,141.4,187.3,142.2z M140.1,124.5c1.7,0.6,3.2,1.2,4.8,1.8c0.6,0.2,1.2,0.2,1.8,0.3
				c2.6,0.6,4.7-0.6,6.8-1.5c2.4-1.1,4.1-2.7,5-5.1c9.2-24.4,18.4-49,27.5-73.5c0.3-0.8,0.3-1.5,0.5-2.1c0.5-2.6-0.6-4.7-1.7-6.8
				c-1.1-2.4-2.9-3.9-5.1-4.8c-1.5-0.6-3.2-1.2-4.2-1.7c-0.9,0-1.5,0-2,0.2c-1.8,0.3-3.9,0.3-5.6,1.5c-2.7,1.8-4.7,4.1-5.9,7.2
				c-4.4,11.8-8.8,23.4-13.1,35.2c-4.4,11.5-8.6,23.1-13,34.6c-0.8,2-1.1,3.9-0.8,5.9c0.5,2.7,0.9,5.4,3.5,7.2
				C139.2,123.1,139.5,123.8,140.1,124.5z M266.5,118.6c4.5-12.1,9.1-24.1,13.6-36.1c0.3-0.9,0.6-1.8,0.6-2.9
				c0.3-4.5-1.4-8.1-5-10.9c-1.2-0.9-2.7-1.4-4.2-2c-3.3-1.4-6.6-0.8-9.5,0.9c-2.7,1.7-4.7,4.2-5.9,7.2
				c-8.5,22.8-17.1,45.7-25.7,68.5c-0.5,1.4-0.9,2.9-1.1,4.4c-0.5,3.8,0.5,6.8,2.9,9.7c1.5,2,3.6,2.6,5.6,3.5
				c5.1,2.4,13.1-1.4,15.1-6.8C257.3,142.5,262,130.5,266.5,118.6z"/>
		</g>
	</g>
</g>
</svg>
