<?xml version="1.0" encoding="utf-8"?>
<!-- Generator: Adobe Illustrator 22.1.0, SVG Export Plug-In . SVG Version: 6.00 Build 0)  -->
<svg version="1.1" id="Layer_1" xmlns="http://www.w3.org/2000/svg" xmlns:xlink="http://www.w3.org/1999/xlink" x="0px" y="0px"
	 viewBox="0 0 100 100.5" style="enable-background:new 0 0 100 100.5;" xml:space="preserve">
<style type="text/css">
	.st0{fill:#FFFFFF;stroke:#FFFFFF;stroke-miterlimit:10;}
</style>
<title>Video Button</title>
<path class="st0" d="M50,6C28.9,6,10.8,20.9,6.8,41.6c-0.2,1.1,0.5,2.1,1.6,2.3c1.1,0.2,2.1-0.5,2.3-1.6c4.2-21.7,25.2-36,46.9-31.8
	s36,25.2,31.8,46.9c-4.2,21.7-25.2,36-46.9,31.8C23.7,85.7,10,69.2,10,50c0-1.1-0.9-2-2-2c-1.1,0-2,0.9-2,2l0,0V50
	c0,24.3,19.7,44,44,44s44-19.7,44-44S74.3,6,50,6z M42.8,32c-1,0.1-1.8,1-1.8,2v32c0,1.1,0.9,2,2,2c0.4,0,0.8-0.1,1.1-0.3l24-16
	c0.9-0.6,1.2-1.8,0.6-2.8c-0.2-0.2-0.3-0.4-0.6-0.6l-24-16C43.7,32,43.3,31.9,42.8,32z M45,37.8L63.4,50L45,62.2V37.8z"/>
</svg>
